<svg xmlns="http://www.w3.org/2000/svg" xmlns:xlink="http://www.w3.org/1999/xlink" viewBox="0 0 197.5 39.82"><defs><style>.cls-1{isolation:isolate;}.cls-2{fill:url(#linear-gradient);}.cls-3{fill:url(#linear-gradient-2);}.cls-4{fill:url(#linear-gradient-3);}.cls-5{fill:url(#linear-gradient-4);}.cls-6{fill:url(#linear-gradient-5);}.cls-7{fill:url(#linear-gradient-6);}.cls-8{fill:url(#linear-gradient-7);}.cls-9{fill:url(#linear-gradient-8);}.cls-10{fill:url(#linear-gradient-9);}.cls-11{fill:url(#linear-gradient-10);}.cls-12{opacity:0.68;mix-blend-mode:overlay;fill:url(#linear-gradient-11);}.cls-13{fill:url(#linear-gradient-12);}.cls-14{fill:#94d5d7;}.cls-15{fill:#ff6495;}</style><linearGradient id="linear-gradient" x1="6.21" y1="87.54" x2="26.64" y2="80.26" gradientUnits="userSpaceOnUse"><stop offset="0.07" stop-color="#3e318b"/><stop offset="0.21" stop-color="#40358d"/><stop offset="0.35" stop-color="#474293"/><stop offset="0.5" stop-color="#52579c"/><stop offset="0.65" stop-color="#6174aa"/><stop offset="0.81" stop-color="#759abb"/><stop offset="0.96" stop-color="#8dc8d0"/><stop offset="1" stop-color="#93d4d6"/></linearGradient><linearGradient id="linear-gradient-2" x1="32.61" y1="107.39" x2="-0.35" y2="122.06" xlink:href="#linear-gradient"/><linearGradient id="linear-gradient-3" x1="-1.74" y1="104.89" x2="41.6" y2="88.65" gradientUnits="userSpaceOnUse"><stop offset="0" stop-color="#4968aa"/><stop offset="0.25" stop-color="#4863a7"/><stop offset="0.55" stop-color="#45559f"/><stop offset="0.86" stop-color="#413e92"/><stop offset="1" stop-color="#3e318b"/></linearGradient><linearGradient id="linear-gradient-4" x1="32.57" y1="88.27" x2="-1.08" y2="98.89" xlink:href="#linear-gradient"/><linearGradient id="linear-gradient-5" x1="4.91" y1="88.4" x2="15.69" y2="81.96" gradientUnits="userSpaceOnUse"><stop offset="0" stop-color="#93d4d6"/><stop offset="0.21" stop-color="#90d3d6"/><stop offset="0.38" stop-color="#86d1d6"/><stop offset="0.52" stop-color="#76cdd5"/><stop offset="0.66" stop-color="#5ec8d4"/><stop offset="0.79" stop-color="#40c1d3"/><stop offset="0.92" stop-color="#1cb9d2"/><stop offset="1" stop-color="#00b3d1"/></linearGradient><linearGradient id="linear-gradient-6" x1="5.31" y1="99.24" x2="25.66" y2="85.72" gradientUnits="userSpaceOnUse"><stop offset="0" stop-color="#93d4d6"/><stop offset="1" stop-color="#5cc5d3"/></linearGradient><linearGradient id="linear-gradient-7" x1="7.13" y1="117.62" x2="40.5" y2="96.94" xlink:href="#linear-gradient-6"/><linearGradient id="linear-gradient-8" x1="28.3" y1="117.63" x2="40.19" y2="108.21" xlink:href="#linear-gradient-6"/><linearGradient id="linear-gradient-9" x1="3.34" y1="107.05" x2="28.78" y2="85.81" gradientUnits="userSpaceOnUse"><stop offset="0" stop-color="#93d4d6"/><stop offset="0.16" stop-color="#8fd3d6"/><stop offset="0.33" stop-color="#83cfd5"/><stop offset="0.49" stop-color="#6ec9d3"/><stop offset="0.66" stop-color="#51c1d1"/><stop offset="0.83" stop-color="#2cb6ce"/><stop offset="1" stop-color="#00a9ca"/></linearGradient><linearGradient id="linear-gradient-10" x1="11.58" y1="104.8" x2="23.69" y2="97.57" gradientUnits="userSpaceOnUse"><stop offset="0" stop-color="#4e6eb5"/><stop offset="0.02" stop-color="#5172b6"/><stop offset="0.21" stop-color="#6995c2"/><stop offset="0.41" stop-color="#7bb1cb"/><stop offset="0.6" stop-color="#88c4d1"/><stop offset="0.8" stop-color="#90d0d5"/><stop offset="1" stop-color="#93d4d6"/></linearGradient><linearGradient id="linear-gradient-11" x1="23.53" y1="97.51" x2="17.34" y2="101.44" gradientUnits="userSpaceOnUse"><stop offset="0" stop-color="#fff" stop-opacity="0"/><stop offset="1" stop-color="#723993"/></linearGradient><linearGradient id="linear-gradient-12" x1="15.86" y1="120.02" x2="36.18" y2="98.2" xlink:href="#linear-gradient-9"/></defs><title>GazetteerLogo</title><g class="cls-1"><g id="Layer_1" data-name="Layer 1"><path class="cls-2" d="M30.29,82.28c-.74-.34-1.73-.77-2.48-1.06a20.5,20.5,0,0,0-3.92-.94h0l-.11,0-.11,0-.32,0a20.63,20.63,0,0,0-2.83-.11l-1.14.07A21.39,21.39,0,0,0,13,81.85l-.37.17-.82.41c-.58.32-.6.33-.9.51a20.66,20.66,0,0,0-4,3.15c-.43.46-1,1.1-1.39,1.58C8,85,19.54,80.44,27.88,81.6A7.11,7.11,0,0,1,30.29,82.28Z" transform="translate(-1.25 -80.09)"/><path class="cls-3" d="M38.84,109.26,39,109c.39-.87,1.44-3.18-1.15-4.48l-.48-.19-.17-.06-.33-.11-.21-.06-.31-.09-.23-.05-.31-.07-.24,0-.31-.06-.25,0-.32,0-.26,0-.32,0-.27,0-.33,0H31.35l-.4,0-.24,0-.46,0-.19,0-1.33.16-.2,0-.47.07-.25,0-.43.07-.27,0-.42.08-.28.06-.41.09-.28.06-.41.09-.28.07-.41.1-.28.07-.41.11-.28.07-.42.12-.26.07-.44.13-.25.07-.46.14-.22.07-.5.16-.18.06-.62.2-.05,0-1.36.47-.08,0-.58.21-.16.06-.49.19-.19.07-.45.18-.06,0h0c-.85.33-3.29,1.12-1.46-.12s1.42-2.13-1-.94-9.57,5.38-8,7.25l.85.88.23.21.09.08.14.13.08.07.12.11.08.07.09.08.08.07.1.09.08.07.09.08.06,0,.07.06.05,0,.06.05.05,0,.06.05,0,0,.08.06.05,0,.07.05,0,0,.06,0,.05,0,.06,0,.06,0h0l.42.3A19.58,19.58,0,0,0,12.58,118l.76.35c-1.56-1,6.14-4.93,12.48-6.36,2.45-.55,6.88-1.32,8.67.19.81,1,.16,2.2-1,3.27-.15.15-.32.29-.49.43h0l-.15.12h0c-.23.18-.47.36-.72.53h0l-.17.11h0l-.18.11h0l-.56.34h0l-.16.09,0,0-.15.08h0l-.52.26,0,0-.13.06,0,0-.12.05,0,0-.13.06h0l-.15.06h0l-.13,0h0l-.09,0h0l-.08,0h0l-.08,0h0l-.11,0h0l-.09,0h-.32l-.13-.06c0-.16,0-.21.35-.49.54-.58-.21-.63-.55-.62-2.15,0-6.93,2.23-6.17,2.83a1,1,0,0,0,.62.08l1.15-.12c.93-.14.93-.14,1.42-.24.75-.17.75-.17,1.13-.27l1-.28.85-.3.8-.32.79-.36.82-.41c.58-.32.6-.33.9-.51l.27-.17.07,0,.21-.13.06,0,.22-.14,0,0a20.46,20.46,0,0,0,2.94-2.42,21.27,21.27,0,0,0,2.34-2.81c.33-.52.73-1.18,1.07-1.78l0-.06Z" transform="translate(-1.25 -80.09)"/><path class="cls-4" d="M40.62,95.54a19.85,19.85,0,0,0-1.12-3.4c-.41-.85-1-2-1.47-2.78a5.35,5.35,0,0,0-3.26-2.07c-12.28-3-32.55,6.49-33.13,8.89-.1.6-.23,1.4-.29,2a19.8,19.8,0,0,0,.47,6.52l0,.07c.1-3.08,25.89-14.19,36.19-9.56.84.38,2.7,1.08,3,3C40.94,97.37,40.78,96.33,40.62,95.54Z" transform="translate(-1.25 -80.09)"/><path class="cls-5" d="M39.51,92.14c-.41-.85-1-2-1.47-2.78a5.35,5.35,0,0,0-3.26-2.07c-5.93-1.43-13.71,0-20.25,2.2h0c-2.89.84.33-1.17,2.64-1.79,1.17-.32,2.18-1.2-.05-.76-3.67.72-15.41,6.6-15.47,9.25-.1.6-.23,1.4-.29,2-.06,1.18-.09,1.69-.09,2.15,4-3.66,23.52-12.26,35.81-9.19a7.67,7.67,0,0,1,2.52,1.2Z" transform="translate(-1.25 -80.09)"/><path class="cls-6" d="M5.56,87.68c.41-.49,1-1.21,1.39-1.67a17.52,17.52,0,0,1,4.13-3.2c.6-.34.52-.31.82-.47a5.6,5.6,0,0,1,.75-.31l.37-.17c-2.14,1-1.81,1.28-1.76,1.31a4.28,4.28,0,0,0,2.39-.72h0c1.5-.69,2.61-.51,2.24.38C14.81,85.38,6,89.28,5.4,88.14c-.08-.14.06-.35.15-.47" transform="translate(-1.25 -80.09)"/><path class="cls-7" d="M30.29,82.28c8.65,4.4-12.68,19.33-24.61,22.44-1.53.4-3.56.79-3.83,0a18.77,18.77,0,0,1-.2-8.59c0,2.4,14.61-3.29,20.87-10.06,2.34-2.53,3.38-5.61-1.37-6A18.2,18.2,0,0,1,30.29,82.28Z" transform="translate(-1.25 -80.09)"/><path class="cls-8" d="M38,89.35a5,5,0,0,1,.44,1c2.06,8.43-27.52,26.05-32.07,23a19.08,19.08,0,0,0,6.93,4.94c6.92,1.74,28.22-10.55,27.73-19.8A19.25,19.25,0,0,0,38,89.35Z" transform="translate(-1.25 -80.09)"/><path class="cls-9" d="M37.76,111.32a22,22,0,0,1-2.36,2.85,20.64,20.64,0,0,1-3.85,3c-.6.35-.6.35-.9.51l-.83.42-.8.36-.81.32-.86.3-1,.28c-.71.18-.74.19-1.14.27a14,14,0,0,1-1.43.19c-.35,0-1,0-1.37.06C25.82,119.5,36,114.57,39,109c-.39.71-.77,1.66-1.23,2.33" transform="translate(-1.25 -80.09)"/><path class="cls-10" d="M32.24,84.55a2.71,2.71,0,0,0-.39-1h0a3.94,3.94,0,0,0-1.55-1.29,19.75,19.75,0,0,0-5.09-1.82,10.45,10.45,0,0,1,1.52.62c7.4,3.76-9.66,17.1-22.21,19.6a8.07,8.07,0,0,1-3.24.06,15.58,15.58,0,0,0,.58,4c.28.74,2.3.35,3.83,0,4.7-1.22,10.85-4.28,16.06-7.8,1.86-1.26,4.31-2.27.93.45-2.13,1.71,0,1.78,3.85-1.32C33,90.82,32.77,86.41,32.24,84.55Z" transform="translate(-1.25 -80.09)"/><path class="cls-11" d="M18.15,100.34c-.57.57-.36.89.41.71a5,5,0,0,0,2.36-1.36c.55-.63.06-.84-.63-.62A7,7,0,0,0,18.15,100.34Z" transform="translate(-1.25 -80.09)"/><path class="cls-12" d="M18.15,100.34c-.57.57-.36.89.41.71a5,5,0,0,0,2.36-1.36c.55-.63.06-.84-.63-.62A7,7,0,0,0,18.15,100.34Z" transform="translate(-1.25 -80.09)"/><path class="cls-13" d="M40,93.36c0,.2,0,.42,0,.62.53,10-21.94,23.26-30.37,22.31a13.39,13.39,0,0,0,3.69,2,7.7,7.7,0,0,0,2.68.1h0c.58-.05.9.2.2.32a10.65,10.65,0,0,1-2.81.06c-.62-.05-.76,1.5,3.51.61C32.22,116.24,38,106.7,40.1,102.55h0c.23-.06-.26.75-.39,1.3-.19.84.88,1,1.37-2.51A18.71,18.71,0,0,0,40,93.36Z" transform="translate(-1.25 -80.09)"/><path class="cls-14" d="M64.06,102.57h4v4.19a14.56,14.56,0,0,1-3,.32,6,6,0,0,1-4.75-1.74q-1.55-1.74-1.55-5.35t1.49-5.21a5.7,5.7,0,0,1,4.52-1.69,10.25,10.25,0,0,1,3.07.45,12.18,12.18,0,0,1,3,1.47l1.82-4.16a9.74,9.74,0,0,0-3.5-1.76,16.2,16.2,0,0,0-4.62-.64,13,13,0,0,0-6.19,1.41,9.83,9.83,0,0,0-4.07,4,13.84,13.84,0,0,0,0,12.29,9.67,9.67,0,0,0,4.14,4,13.76,13.76,0,0,0,6.38,1.39,23.33,23.33,0,0,0,4.57-.45,17.23,17.23,0,0,0,4-1.28V98.55H64.06Z" transform="translate(-1.25 -80.09)"/><path class="cls-14" d="M83.94,95.16a14.54,14.54,0,0,0-3.79.56,13.48,13.48,0,0,0-3.44,1.39l1.44,3.74a14.46,14.46,0,0,1,2.67-1.1,8.78,8.78,0,0,1,2.51-.43,3,3,0,0,1,1.92.46,2.08,2.08,0,0,1,.54,1.65v.38h-.86a23.77,23.77,0,0,0-5.18.45,5.17,5.17,0,0,0-2.8,1.45,4,4,0,0,0-.88,2.7,4.76,4.76,0,0,0,.75,2.64,5.1,5.1,0,0,0,2.06,1.82,6.49,6.49,0,0,0,2.94.66,4.69,4.69,0,0,0,2.53-.66,3.62,3.62,0,0,0,1.5-1.8v2.2h5.34v-9.08q0-3.61-1.77-5.32T83.94,95.16Zm1.85,9.65a3,3,0,0,1-.73,2.09,2.43,2.43,0,0,1-1.89.82,1.59,1.59,0,0,1-1.2-.48,1.67,1.67,0,0,1-.46-1.21,1.26,1.26,0,0,1,.86-1.23,8.13,8.13,0,0,1,2.91-.37h.51Z" transform="translate(-1.25 -80.09)"/><polygon class="cls-15" points="106.75 19.19 106.75 15.45 92.92 15.45 92.92 19.64 99.98 19.64 92.92 27.18 92.92 31.18 107.08 31.18 107.08 26.99 99.5 26.99 106.75 19.19"/><path class="cls-15" d="M117.63,95.16a8,8,0,0,0-4.08,1,7.25,7.25,0,0,0-2.81,2.91,8.8,8.8,0,0,0-1,4.24,8.53,8.53,0,0,0,1.07,4.35,7.09,7.09,0,0,0,3.05,2.84,10.39,10.39,0,0,0,4.7,1,11.61,11.61,0,0,0,3.32-.49,9.33,9.33,0,0,0,2.85-1.36l-1.44-3.74a7.87,7.87,0,0,1-4.44,1.44,3.93,3.93,0,0,1-2.46-.67,3.36,3.36,0,0,1-1.12-2.21H125v-1.28a8.38,8.38,0,0,0-2-5.9A6.93,6.93,0,0,0,117.63,95.16Zm-2.43,6.65q.32-2.81,2.59-2.81t2.43,2.81Z" transform="translate(-1.25 -80.09)"/><path class="cls-15" d="M146.55,104.94V99.73h3.77V95.54h-3.77V91h-5.69v4.57h-6.62V91h-5.69v4.57h-2.94v4.19h2.94v5.18q0,3.39,1.74,5t5.58,1.61a15.91,15.91,0,0,0,2-.13l.29-4.06a14.18,14.18,0,0,1-1.57.1q-2.33,0-2.33-2.49V99.73h6.62v5.18q0,3.39,1.74,5t5.58,1.61a15.91,15.91,0,0,0,2-.13l.29-4.06a14.18,14.18,0,0,1-1.57.1Q146.55,107.43,146.55,104.94Z" transform="translate(-1.25 -80.09)"/><path class="cls-15" d="M159.6,95.16a8,8,0,0,0-4.08,1,7.25,7.25,0,0,0-2.81,2.91,8.8,8.8,0,0,0-1,4.24,8.54,8.54,0,0,0,1.07,4.35,7.11,7.11,0,0,0,3.05,2.84,10.4,10.4,0,0,0,4.7,1,11.61,11.61,0,0,0,3.32-.49,9.33,9.33,0,0,0,2.85-1.36l-1.44-3.74a7.87,7.87,0,0,1-4.44,1.44,3.94,3.94,0,0,1-2.46-.67,3.37,3.37,0,0,1-1.12-2.21h9.72v-1.28a8.38,8.38,0,0,0-2-5.9A6.93,6.93,0,0,0,159.6,95.16Zm-2.43,6.65q.32-2.81,2.59-2.81t2.43,2.81Z" transform="translate(-1.25 -80.09)"/><path class="cls-14" d="M176.7,95.16a8,8,0,0,0-4.08,1,7.25,7.25,0,0,0-2.81,2.91,8.8,8.8,0,0,0-1,4.24,8.54,8.54,0,0,0,1.07,4.35,7.11,7.11,0,0,0,3.05,2.84,10.4,10.4,0,0,0,4.7,1,11.61,11.61,0,0,0,3.32-.49,9.33,9.33,0,0,0,2.85-1.36l-1.44-3.74a7.87,7.87,0,0,1-4.44,1.44,3.94,3.94,0,0,1-2.46-.67,3.37,3.37,0,0,1-1.12-2.21H184v-1.28a8.38,8.38,0,0,0-2-5.9A6.93,6.93,0,0,0,176.7,95.16Zm-2.43,6.65q.32-2.81,2.59-2.81t2.43,2.81Z" transform="translate(-1.25 -80.09)"/><path class="cls-14" d="M198.43,95.09l-1.57.13a6.46,6.46,0,0,0-3,.85A4.21,4.21,0,0,0,192,98.26V95.54h-5.4v15.73h5.69v-7.9a3.23,3.23,0,0,1,.74-2.27,4,4,0,0,1,2.59-1l3.1-.32Z" transform="translate(-1.25 -80.09)"/></g></g></svg>